<svg width="15" height="16" viewBox="0 0 15 16" fill="none" xmlns="http://www.w3.org/2000/svg">
<path id="Vector" d="M4.61364 5.89213V3.48304C4.61364 2.68438 4.9309 1.91843 5.49564 1.35369C6.06038 0.788947 6.82634 0.47168 7.625 0.47168C8.42366 0.47168 9.18962 0.788947 9.75436 1.35369C10.3191 1.91843 10.6364 2.68438 10.6364 3.48304V5.89213M1.60227 5.89213H13.6477C13.9804 5.89213 14.25 6.16178 14.25 6.49441V14.9262C14.25 15.2589 13.9804 15.5285 13.6477 15.5285H1.60227C1.26965 15.5285 1 15.2589 1 14.9262V6.49441C1 6.16178 1.26965 5.89213 1.60227 5.89213Z" stroke="#CCE2E0" stroke-width="0.602273" stroke-linecap="round" stroke-linejoin="round"/>
</svg>
